# xmcd
#
# Track frame offsets:
#	150
#	10466
#	28426
#	41709
#	53111
#	62408
#	75703
#	96241
#	113533
#	131052
#
# Disc length: 2086 seconds
#
# Revision: 0
# Processed by: cddbd v1.5.2PL0 Copyright (c) Steve Scherf et al.
# Submitted via: audiograbber 1.83.01
#
DISCID=8308240a
DTITLE=Various Artist - Nashville Stars On Tour - THE STOCKHOLM CONCERT, PART 2
DYEAR=2007
DGENRE=Country
TTITLE0=Jim Reeves - Billy Bayou
TTITLE1=Jim Reeves - I Love You Because
TTITLE2=Jim Reeves - Bimbo
TTITLE3=Jim Reeves - Four Walls
TTITLE4=Jim Reeves - Yonder Comes A Sucker
TTITLE5=Jim Reeves - He'll Have To Go
TTITLE6=Jim Reeves - Adios Amigo
TTITLE7=Jim Reeves - I Can't Stop Loving You
TTITLE8=Jim Reeves - Mexican Joe
TTITLE9=Jim Reeves - Danny Boy
EXTD=
EXTT0=
EXTT1=
EXTT2=
EXTT3=
EXTT4=
EXTT5=
EXTT6=
EXTT7=
EXTT8=
EXTT9=
PLAYORDER=
